<svg width="547" height="156" viewBox="0 0 547 156" fill="none" xmlns="http://www.w3.org/2000/svg">
<g clip-path="url(#clip0_360_23023)">
<path d="M34.5828 54.5975H6.15277C4.52095 54.5975 2.95597 55.2452 1.8021 56.398C0.648236 57.5508 0 59.1144 0 60.7447L0 149.863C-2.20117e-06 151.489 0.645782 153.048 1.79557 154.199C2.94536 155.35 4.50518 155.997 6.13256 156H51.4044C53.481 156 55.4725 155.176 56.9409 153.709L73.7524 136.943C74.323 136.371 75.0009 135.918 75.7472 135.608C76.4935 135.299 77.2937 135.14 78.1017 135.14C78.9098 135.14 79.7099 135.299 80.4562 135.608C81.2026 135.918 81.8805 136.371 82.4511 136.943L99.2323 153.709C100.698 155.174 102.685 155.998 104.759 156H150.03C150.837 156 151.636 155.841 152.381 155.533C153.126 155.225 153.804 154.772 154.374 154.203C154.944 153.633 155.397 152.956 155.706 152.212C156.014 151.467 156.173 150.669 156.173 149.863V6.14721C156.173 5.3374 156.013 4.53557 155.702 3.78779C155.391 3.04 154.935 2.361 154.36 1.78979C153.786 1.21858 153.104 0.766414 152.354 0.459278C151.604 0.152142 150.801 -0.00391461 149.99 7.45918e-05H132.754C78.0664 7.45918e-05 89.1999 54.5975 34.5828 54.5975Z" fill="#193C6C"/>
<path d="M69.5295 8.44133e-05H6.16307C4.52858 8.44133e-05 2.96103 0.648791 1.80527 1.8035C0.649507 2.9582 0.000207051 4.52431 0.000207051 6.15731V29.1208C-0.0064617 29.9336 0.148023 30.7397 0.454749 31.4925C0.761475 32.2454 1.21437 32.9301 1.78731 33.5072C2.36025 34.0843 3.0419 34.5424 3.79292 34.855C4.54395 35.1676 5.34949 35.3285 6.16307 35.3284H26.7127C53.6475 35.3284 64.2658 21.0962 73.3889 7.18688C73.8574 6.49077 74.127 5.6802 74.1688 4.84238C74.2106 4.00457 74.0229 3.17123 73.6259 2.43204C73.229 1.69286 72.6378 1.07581 71.916 0.647288C71.1942 0.218771 70.3691 -0.0049896 69.5295 8.44133e-05Z" fill="#50AF47"/>
<path d="M218.751 74.2906L236.785 97.2742C236.902 97.4233 237.051 97.5438 237.222 97.6266C237.393 97.7095 237.58 97.7525 237.77 97.7525C237.959 97.7525 238.147 97.7095 238.317 97.6266C238.488 97.5438 238.638 97.4233 238.755 97.2742L256.779 74.2906C257.013 73.9953 257.311 73.7566 257.65 73.5923C257.989 73.428 258.362 73.3424 258.739 73.3418H268.468C269.127 73.3418 269.759 73.6034 270.225 74.0691C270.691 74.5347 270.953 75.1663 270.953 75.8249V134.066C270.951 134.723 270.688 135.352 270.222 135.815C269.756 136.279 269.125 136.539 268.468 136.539H259.537C258.879 136.539 258.249 136.279 257.783 135.815C257.317 135.352 257.054 134.723 257.051 134.066V99.8482C257.05 99.5904 256.97 99.3391 256.82 99.1289C256.671 98.9186 256.461 98.7595 256.217 98.6734C255.974 98.5872 255.71 98.5782 255.462 98.6476C255.213 98.7169 254.992 98.8612 254.829 99.0608L239.674 117.704C239.441 117.993 239.147 118.226 238.812 118.386C238.477 118.546 238.111 118.629 237.739 118.629C237.368 118.629 237.002 118.546 236.667 118.386C236.332 118.226 236.038 117.993 235.805 117.704L220.65 98.7076C220.49 98.5027 220.27 98.353 220.021 98.2797C219.771 98.2065 219.505 98.2132 219.259 98.299C219.014 98.3848 218.802 98.5454 218.652 98.7581C218.503 98.9709 218.424 99.225 218.427 99.4848V134.086C218.425 134.743 218.162 135.372 217.696 135.836C217.23 136.299 216.599 136.559 215.942 136.559H207.112C206.455 136.559 205.826 136.299 205.362 135.835C204.898 135.371 204.637 134.742 204.637 134.086V75.8249C204.637 75.1681 204.897 74.538 205.361 74.0726C205.825 73.6072 206.455 73.3445 207.112 73.3418H216.851C217.227 73.3424 217.598 73.4281 217.935 73.5925C218.273 73.7568 218.569 73.9955 218.801 74.2906" fill="#193C6C"/>
<path d="M295.769 112.374C296.305 114.606 297.232 116.724 298.507 118.633C299.767 120.484 301.45 122.01 303.417 123.084C305.713 124.187 308.229 124.759 310.777 124.759C313.325 124.759 315.84 124.187 318.137 123.084C320.1 122.009 321.779 120.483 323.037 118.633C324.316 116.727 325.243 114.607 325.775 112.374C326.352 110.036 326.64 107.636 326.633 105.228C326.641 102.727 326.353 100.233 325.775 97.799C325.253 95.5129 324.326 93.3386 323.037 91.3793C321.789 89.5099 320.108 87.969 318.137 86.8876C315.84 85.785 313.325 85.2125 310.777 85.2125C308.229 85.2125 305.713 85.785 303.417 86.8876C301.44 87.9657 299.755 89.5071 298.507 91.3793C297.222 93.3408 296.295 95.5143 295.769 97.799C295.19 100.233 294.902 102.727 294.91 105.228C294.903 107.636 295.191 110.036 295.769 112.374ZM283.089 92.6713C284.359 88.9588 286.343 85.5299 288.929 82.5775C291.515 79.6641 294.708 77.3522 298.284 75.8046C306.305 72.5345 315.289 72.5345 323.309 75.8046C326.868 77.3632 330.046 79.6739 332.625 82.5775C335.207 85.5325 337.19 88.9606 338.464 92.6713C339.844 96.7161 340.527 100.965 340.485 105.238C340.522 109.428 339.839 113.594 338.464 117.553C337.19 121.218 335.206 124.596 332.625 127.495C330.031 130.347 326.854 132.608 323.309 134.127C315.278 137.344 306.315 137.344 298.284 134.127C294.722 132.619 291.53 130.356 288.929 127.495C286.344 124.599 284.359 121.22 283.089 117.553C281.71 113.595 281.026 109.429 281.069 105.238C281.022 100.965 281.705 96.7149 283.089 92.6713Z" fill="#193C6C"/>
<path d="M379.391 125.749C380.702 125.75 382.009 125.615 383.291 125.345C384.454 125.109 385.564 124.661 386.565 124.023C387.519 123.384 388.297 122.517 388.828 121.499C389.423 120.239 389.711 118.855 389.666 117.462C389.666 114.222 388.747 112.687 386.918 111.294C384.792 109.82 382.239 109.089 379.654 109.215H366.985C366.327 109.218 365.698 109.481 365.234 109.946C364.77 110.411 364.51 111.041 364.51 111.698V123.306C364.51 123.963 364.77 124.593 365.234 125.058C365.698 125.524 366.327 125.786 366.985 125.789L379.391 125.749ZM378.593 98.4954C380.752 98.576 382.878 97.9563 384.655 96.729C386.251 95.548 387.05 94.0239 387.05 91.3692C387.097 90.1131 386.822 88.8658 386.251 87.7455C385.749 86.8307 385.014 86.0646 384.12 85.5249C383.185 84.9768 382.158 84.6039 381.089 84.4246C379.905 84.2119 378.705 84.1071 377.502 84.1117H366.985C366.327 84.1144 365.698 84.3772 365.234 84.8426C364.77 85.3079 364.51 85.938 364.51 86.5948V96.0123C364.51 96.6692 364.77 97.2992 365.234 97.7646C365.698 98.23 366.327 98.4928 366.985 98.4954H378.593ZM380.361 73.2609C383.13 73.2403 385.893 73.5075 388.605 74.0583C390.901 74.5131 393.084 75.4152 395.031 76.713C396.782 77.9526 398.175 79.6304 399.072 81.5782C400.113 83.9131 400.614 86.4524 400.537 89.0072C400.667 91.0644 400.297 93.1225 399.46 95.0065C398.623 96.8904 397.343 98.5444 395.728 99.8278C395.426 100.085 395.189 100.412 395.039 100.779C394.889 101.147 394.829 101.545 394.864 101.941C394.9 102.336 395.03 102.717 395.244 103.052C395.457 103.387 395.748 103.666 396.092 103.865C397.914 104.89 399.479 106.316 400.668 108.034C402.358 110.776 403.336 113.896 403.513 117.112C403.689 120.327 403.059 123.535 401.679 126.445C400.473 128.724 398.742 130.682 396.627 132.158C394.45 133.667 392.021 134.774 389.454 135.429C386.75 136.137 383.965 136.493 381.17 136.489H353.083C352.426 136.489 351.795 136.228 351.329 135.765C350.863 135.301 350.6 134.672 350.598 134.016V80.8211C350.596 79.8394 350.789 78.867 351.164 77.9596C351.539 77.0522 352.089 76.2276 352.784 75.5329C353.478 74.8383 354.303 74.2872 355.211 73.9112C356.118 73.5352 357.091 73.3416 358.074 73.3416L380.361 73.2609Z" fill="#193C6C"/>
<path d="M428.523 75.9557V134.187C428.523 134.844 428.263 135.474 427.799 135.939C427.335 136.405 426.705 136.667 426.048 136.67H417.106C416.447 136.67 415.815 136.408 415.349 135.943C414.883 135.477 414.621 134.846 414.621 134.187V80.9522C414.62 79.9704 414.812 78.998 415.187 78.0907C415.562 77.1833 416.113 76.3586 416.807 75.664C417.502 74.9693 418.326 74.4182 419.234 74.0422C420.142 73.6662 421.115 73.4727 422.097 73.4727H426.048C426.705 73.4753 427.335 73.7381 427.799 74.2035C428.263 74.6689 428.523 75.2989 428.523 75.9557Z" fill="#193C6C"/>
<path d="M456.345 75.9562V122.509C456.345 123.167 456.607 123.799 457.073 124.265C457.54 124.73 458.172 124.992 458.831 124.992H484.695C485.352 124.995 485.982 125.257 486.446 125.723C486.909 126.188 487.17 126.818 487.17 127.475V134.187C487.17 134.844 486.909 135.474 486.446 135.94C485.982 136.405 485.352 136.668 484.695 136.671H444.919C444.26 136.671 443.628 136.409 443.162 135.943C442.695 135.478 442.434 134.846 442.434 134.187V75.9562C442.434 75.2977 442.695 74.6661 443.162 74.2004C443.628 73.7348 444.26 73.4731 444.919 73.4731H453.86C454.519 73.4731 455.151 73.7348 455.618 74.2004C456.084 74.6661 456.345 75.2977 456.345 75.9562Z" fill="#193C6C"/>
<path d="M546.293 75.8249V82.5474C546.293 82.8734 546.229 83.1963 546.104 83.4976C545.979 83.7989 545.796 84.0726 545.565 84.3032C545.334 84.5337 545.06 84.7166 544.759 84.8414C544.457 84.9662 544.134 85.0304 543.808 85.0304H515.368C514.71 85.0331 514.081 85.2959 513.617 85.7613C513.153 86.2266 512.892 86.8567 512.892 87.5135V95.5179C512.892 96.1747 513.153 96.8048 513.617 97.2702C514.081 97.7355 514.71 97.9983 515.368 98.001H541.949C542.606 98.001 543.237 98.2612 543.703 98.7247C544.168 99.1882 544.431 99.8172 544.434 100.474V107.307C544.434 107.634 544.37 107.956 544.245 108.258C544.12 108.559 543.937 108.833 543.706 109.063C543.475 109.294 543.201 109.477 542.9 109.602C542.598 109.726 542.275 109.791 541.949 109.791H515.368C514.71 109.793 514.081 110.056 513.617 110.521C513.153 110.987 512.892 111.617 512.892 112.274V122.367C512.892 123.024 513.153 123.654 513.617 124.12C514.081 124.585 514.71 124.848 515.368 124.851H544.555C544.882 124.851 545.205 124.915 545.506 125.04C545.808 125.164 546.082 125.347 546.313 125.578C546.544 125.808 546.727 126.082 546.852 126.383C546.976 126.685 547.041 127.008 547.041 127.334V134.056C547.038 134.713 546.775 135.342 546.309 135.805C545.843 136.269 545.213 136.529 544.555 136.529H501.466C500.808 136.529 500.178 136.269 499.712 135.805C499.246 135.342 498.983 134.713 498.98 134.056V75.8249C498.98 75.1663 499.242 74.5347 499.708 74.0691C500.174 73.6034 500.807 73.3418 501.466 73.3418H543.808C544.134 73.3418 544.457 73.406 544.759 73.5308C545.06 73.6556 545.334 73.8385 545.565 74.0691C545.796 74.2996 545.979 74.5734 546.104 74.8746C546.229 75.1759 546.293 75.4988 546.293 75.8249Z" fill="#193C6C"/>
<path d="M310.305 60.159L306.699 66.5181C306.579 66.723 306.516 66.9558 306.516 67.1929C306.515 67.43 306.578 67.6629 306.697 67.868C306.816 68.0731 306.987 68.2431 307.193 68.3605C307.4 68.478 307.633 68.5389 307.871 68.5369H314.114C314.46 68.5327 314.791 68.3995 315.044 68.1634L320.661 61.8043C320.851 61.6183 320.981 61.3802 321.036 61.12C321.09 60.8599 321.066 60.5895 320.967 60.343C320.867 60.0966 320.697 59.8852 320.477 59.7356C320.257 59.5861 319.997 59.5051 319.731 59.5029H311.467C311.231 59.5048 311 59.5681 310.796 59.6868C310.593 59.8054 310.423 59.9751 310.305 60.1792" fill="#193C6C"/>
<path d="M224.481 32.109H209.326C209.151 32.1094 208.978 32.0709 208.82 31.9963C208.661 31.9217 208.521 31.8129 208.41 31.6776C208.299 31.5424 208.219 31.3841 208.177 31.2143C208.134 31.0446 208.13 30.8674 208.165 30.6958C208.324 29.9373 208.541 29.1917 208.811 28.4651C209.228 27.3233 209.832 26.2589 210.599 25.3158C211.347 24.4073 212.276 23.6647 213.327 23.1356C214.467 22.5646 215.73 22.2804 217.005 22.3079C218.263 22.285 219.508 22.5691 220.632 23.1356C221.678 23.6676 222.603 24.4099 223.349 25.3158C224.107 26.2457 224.695 27.3014 225.087 28.4348C225.353 29.201 225.539 29.9925 225.643 30.7968C225.663 30.962 225.648 31.1296 225.598 31.2884C225.548 31.4472 225.465 31.5935 225.354 31.7177C225.243 31.8419 225.107 31.941 224.955 32.0085C224.802 32.0759 224.637 32.1102 224.471 32.109H224.481ZM226.491 24.3065C225.459 22.7593 224.047 21.5031 222.389 20.6582C220.732 19.8133 218.884 19.4082 217.025 19.4816C215.075 19.4338 213.143 19.8635 211.398 20.7332C209.867 21.5201 208.542 22.6539 207.528 24.044C206.508 25.4483 205.758 27.0295 205.315 28.7074C204.834 30.4428 204.593 32.236 204.598 34.0369C204.585 35.9146 204.827 37.7854 205.315 39.5986C205.748 41.274 206.499 42.8504 207.528 44.2418C208.539 45.5913 209.868 46.6698 211.398 47.3809C213.161 48.1875 215.086 48.5811 217.025 48.5316C220.51 48.5316 223.198 47.6737 225.107 45.9678C226.771 44.4149 227.983 42.4406 228.613 40.2547C228.666 40.0776 228.678 39.8906 228.646 39.7084C228.615 39.5262 228.541 39.3538 228.431 39.2049C228.321 39.0561 228.179 38.9348 228.014 38.8507C227.849 38.7666 227.667 38.722 227.482 38.7204H226.552C226.307 38.7181 226.068 38.7929 225.869 38.9343C225.669 39.0756 225.519 39.2763 225.441 39.5078C224.956 41.1615 224.039 42.6563 222.784 43.838C221.183 45.1949 219.12 45.882 217.025 45.7558C215.588 45.7994 214.166 45.4504 212.913 44.7465C211.801 44.0989 210.837 43.2254 210.084 42.1826C209.33 41.1328 208.779 39.9519 208.458 38.7002C208.249 37.8844 208.101 37.0545 208.013 36.2172C208 36.0541 208.022 35.8903 208.075 35.7358C208.129 35.5813 208.214 35.4395 208.325 35.3193C208.436 35.199 208.57 35.1029 208.72 35.0368C208.87 34.9707 209.031 34.9362 209.195 34.9353H227.956C228.115 34.9353 228.271 34.9038 228.417 34.8427C228.563 34.7816 228.696 34.692 228.807 34.5793C228.918 34.4665 229.005 34.3328 229.064 34.186C229.122 34.0392 229.151 33.8821 229.149 33.724C229.118 32.2222 228.935 30.7274 228.603 29.2625C228.213 27.494 227.497 25.8134 226.491 24.3065Z" fill="#193C6C"/>
<path d="M251.982 34.9344C251.227 34.3205 250.382 33.8268 249.476 33.4708C248.556 33.1052 247.597 32.8477 246.617 32.7037L242.142 31.6943C241.566 31.553 240.949 31.3713 240.273 31.1392C239.63 30.9208 239.014 30.6331 238.434 30.2812C237.882 29.9387 237.402 29.4932 237.019 28.969C236.611 28.4141 236.398 27.7398 236.413 27.0512C236.385 26.2631 236.589 25.4841 236.999 24.8103C237.392 24.2076 237.921 23.7061 238.545 23.3467C239.202 22.9697 239.914 22.7005 240.656 22.5493C241.4 22.3895 242.159 22.3083 242.92 22.3071C243.837 22.2998 244.751 22.4152 245.637 22.6503C246.458 22.8642 247.23 23.2344 247.91 23.7404C248.594 24.2401 249.153 24.8892 249.547 25.638C249.811 26.1692 249.992 26.7377 250.083 27.3237C250.126 27.602 250.266 27.8561 250.479 28.0409C250.691 28.2257 250.963 28.3292 251.244 28.3331H252.255C252.424 28.3332 252.591 28.2972 252.745 28.2274C252.898 28.1575 253.036 28.0556 253.147 27.9284C253.258 27.8011 253.34 27.6516 253.388 27.4898C253.437 27.3281 253.45 27.1578 253.427 26.9906C253.299 26.1059 253.041 25.2452 252.659 24.4369C252.15 23.3678 251.412 22.4236 250.497 21.6712C249.569 20.9126 248.496 20.3495 247.345 20.0158C246.091 19.6519 244.791 19.4717 243.485 19.4808C242.254 19.4825 241.027 19.6247 239.828 19.9047C238.626 20.1444 237.472 20.5809 236.413 21.1967C235.423 21.7908 234.591 22.615 233.988 23.5991C233.34 24.6759 233.014 25.916 233.049 27.1723C233.02 28.1895 233.221 29.2001 233.635 30.1298C234.02 30.9155 234.575 31.6052 235.261 32.1485C236.001 32.7289 236.821 33.1982 237.696 33.5415C238.682 33.9466 239.695 34.2838 240.727 34.5509L245.041 35.5098C245.789 35.6915 246.526 35.9034 247.254 36.1558C247.941 36.3791 248.597 36.6913 249.204 37.0844C249.75 37.4463 250.211 37.9214 250.557 38.4774C250.904 39.0928 251.079 39.7901 251.063 40.4961C251.089 41.3595 250.838 42.2086 250.345 42.9187C249.865 43.5936 249.249 44.1609 248.537 44.5841C247.777 45.0112 246.956 45.3177 246.102 45.4926C245.267 45.662 244.418 45.7499 243.566 45.755C241.55 45.8237 239.569 45.216 237.939 44.029C236.633 43.0079 235.784 41.5135 235.575 39.8703C235.532 39.592 235.391 39.3379 235.179 39.1531C234.966 38.9683 234.695 38.8648 234.413 38.8609H233.402C233.231 38.8601 233.06 38.8968 232.904 38.9684C232.748 39.04 232.609 39.1448 232.498 39.2755C232.386 39.4062 232.304 39.5597 232.258 39.7251C232.212 39.8906 232.203 40.0642 232.231 40.2337C232.502 42.578 233.676 44.7246 235.504 46.2193C237.8 47.8341 240.569 48.6401 243.374 48.5106C244.682 48.5073 245.986 48.3651 247.264 48.0867C248.518 47.821 249.717 47.3431 250.81 46.6736C251.85 46.0194 252.734 45.144 253.396 44.1097C254.097 42.9666 254.448 41.644 254.407 40.3044C254.434 39.2136 254.195 38.1326 253.71 37.1551C253.269 36.2967 252.661 35.5348 251.921 34.9143" fill="#193C6C"/>
<path d="M280.866 37.9233H279.936C279.655 37.9254 279.384 38.0286 279.172 38.2139C278.961 38.3992 278.823 38.6543 278.784 38.9327C278.636 39.6893 278.395 40.4249 278.067 41.123C277.631 42.0464 277.032 42.8841 276.299 43.596C275.592 44.2891 274.758 44.8407 273.844 45.2211C272.918 45.6142 271.92 45.8134 270.914 45.8065C269.446 45.8408 267.994 45.493 266.701 44.7972C265.506 44.1437 264.471 43.2336 263.67 42.1324C262.846 40.9986 262.23 39.7271 261.852 38.3775C261.03 35.5765 261.03 32.5987 261.852 29.7978C262.228 28.4442 262.844 27.1691 263.67 26.0328C264.471 24.9316 265.506 24.0215 266.701 23.368C267.994 22.6722 269.446 22.3243 270.914 22.3586C272.821 22.2429 274.697 22.8728 276.147 24.1149C277.275 25.228 278.084 26.6219 278.491 28.1525C278.563 28.3931 278.712 28.6038 278.914 28.753C279.116 28.9023 279.361 28.982 279.613 28.9802H280.623C280.813 28.9982 281.005 28.9699 281.182 28.8978C281.358 28.8256 281.515 28.7118 281.638 28.5659C281.761 28.4201 281.847 28.2466 281.889 28.0603C281.93 27.8741 281.926 27.6806 281.876 27.4964C281.456 25.2572 280.244 23.2437 278.461 21.8236C276.295 20.2266 273.655 19.402 270.965 19.4819C269.041 19.4454 267.134 19.8457 265.388 20.6528C263.834 21.4065 262.456 22.4797 261.346 23.802C260.219 25.1586 259.368 26.7222 258.841 28.4048C257.709 32.0712 257.709 35.993 258.841 39.6594C259.368 41.3421 260.219 42.9056 261.346 44.2622C262.447 45.5867 263.827 46.6518 265.388 47.3812C267.137 48.1766 269.043 48.5698 270.965 48.5319C273.792 48.6407 276.549 47.6367 278.643 45.7359C280.42 44.011 281.62 41.7793 282.078 39.3465C282.115 39.1699 282.111 38.9872 282.067 38.8123C282.022 38.6374 281.939 38.4749 281.821 38.3375C281.704 38.2001 281.557 38.0913 281.392 38.0195C281.226 37.9477 281.046 37.9148 280.866 37.9233Z" fill="#193C6C"/>
<path d="M307.669 38.3561C307.29 39.7036 306.678 40.9744 305.86 42.111C305.057 43.2099 304.023 44.1196 302.83 44.7758C301.523 45.4389 300.077 45.7846 298.612 45.7846C297.146 45.7846 295.7 45.4389 294.394 44.7758C293.2 44.1196 292.166 43.2099 291.363 42.111C290.559 40.9715 289.961 39.7009 289.595 38.3561C288.773 35.5551 288.773 32.5773 289.595 29.7763C289.971 28.425 290.584 27.1505 291.403 26.0113C292.206 24.9124 293.241 24.0028 294.434 23.3466C295.741 22.6834 297.186 22.3378 298.652 22.3378C300.118 22.3378 301.563 22.6834 302.87 23.3466C304.063 24.0028 305.098 24.9124 305.901 26.0113C306.72 27.1505 307.333 28.425 307.709 29.7763C308.531 32.5773 308.531 35.5551 307.709 38.3561H307.669ZM308.326 23.8311C307.219 22.5056 305.841 21.4318 304.284 20.6818C302.533 19.914 300.641 19.5176 298.728 19.5176C296.815 19.5176 294.923 19.914 293.171 20.6818C291.617 21.4355 290.24 22.5087 289.13 23.8311C288.003 25.1877 287.151 26.7512 286.624 28.4339C285.479 32.0982 285.479 36.0241 286.624 39.6885C287.1 41.3466 287.889 42.8987 288.948 44.261C290.048 45.5855 291.428 46.6506 292.989 47.38C294.744 48.1348 296.635 48.5241 298.546 48.5241C300.457 48.5241 302.347 48.1348 304.103 47.38C305.665 46.6532 307.045 45.5877 308.144 44.261C309.271 42.9044 310.122 41.3408 310.649 39.6582C311.794 35.9938 311.794 32.0679 310.649 28.4036C310.122 26.7209 309.271 25.1574 308.144 23.8008" fill="#193C6C"/>
<path d="M344.133 37.1253C344.16 38.3271 343.918 39.5199 343.425 40.6166C342.932 41.7132 342.201 42.6861 341.283 43.4642C340.392 44.2224 339.363 44.8016 338.253 45.17C337.067 45.5644 335.825 45.7622 334.575 45.7555C333.795 45.7582 333.02 45.632 332.282 45.382C331.541 45.1597 330.853 44.7887 330.261 44.2919C329.693 43.8238 329.229 43.2429 328.897 42.586C328.547 41.8847 328.374 41.1085 328.392 40.325C328.354 39.7491 328.442 39.1718 328.649 38.6332C328.857 38.0946 329.179 37.6076 329.594 37.206C330.471 36.4316 331.505 35.8565 332.625 35.5204C333.976 35.1144 335.358 34.8206 336.757 34.6422C338.273 34.4504 339.738 34.2283 341.162 33.976C341.703 33.8899 342.236 33.7651 342.759 33.6025C343.011 33.552 343.25 33.4507 343.462 33.305C343.674 33.1592 343.854 32.972 343.991 32.7547H344.092L344.133 37.1253ZM349.467 45.705C348.154 45.705 347.497 44.2818 347.497 42.9292V28.3336C347.56 26.7818 347.248 25.2376 346.588 23.8317C346.05 22.7477 345.243 21.8197 344.244 21.1367C343.26 20.4821 342.153 20.0355 340.991 19.8245C339.794 19.6008 338.58 19.4859 337.364 19.4813C335.888 19.4668 334.417 19.6467 332.989 20.0163C331.743 20.3377 330.573 20.9001 329.544 21.6716C328.554 22.4325 327.761 23.4188 327.23 24.5484C326.81 25.4338 326.52 26.3757 326.371 27.3444C326.344 27.5125 326.353 27.6848 326.398 27.849C326.444 28.0133 326.525 28.1657 326.635 28.2954C326.746 28.4252 326.884 28.5293 327.039 28.6004C327.194 28.6715 327.363 28.7079 327.533 28.707H328.493C328.776 28.7052 329.048 28.6024 329.261 28.4172C329.474 28.2321 329.614 27.9768 329.655 27.6976C329.713 26.9546 329.922 26.2313 330.27 25.5718C330.617 24.9123 331.095 24.3305 331.676 23.862C333.203 22.79 335.044 22.254 336.909 22.3378C337.847 22.3334 338.784 22.4145 339.707 22.5801C340.522 22.72 341.301 23.0184 342.001 23.4582C342.661 23.8858 343.194 24.4816 343.547 25.1843C343.949 26.0633 344.139 27.0245 344.102 27.9904C344.127 28.6062 344.028 29.2208 343.809 29.7972C343.642 30.2289 343.359 30.6061 342.991 30.8873C342.593 31.1711 342.138 31.3641 341.657 31.4525C341.122 31.5535 340.495 31.6443 339.788 31.715C337.97 31.9303 336.181 32.1524 334.424 32.3812C332.797 32.5811 331.201 32.9846 329.675 33.5823C328.363 34.0899 327.209 34.9363 326.331 36.0351C325.404 37.3465 324.951 38.9343 325.048 40.537C325.019 41.773 325.264 43 325.765 44.1304C326.23 45.1133 326.923 45.9714 327.786 46.6337C328.651 47.3137 329.649 47.8054 330.716 48.0771C331.893 48.3869 333.105 48.5397 334.323 48.5313C335.499 48.547 336.672 48.4216 337.818 48.1578C338.734 47.9293 339.612 47.5689 340.425 47.0879C341.199 46.621 341.897 46.0389 342.496 45.3618C343.161 44.6129 343.775 43.8205 344.335 42.9898H344.446C344.441 43.8865 344.485 44.7828 344.577 45.6747C344.647 46.2176 344.837 46.7381 345.133 47.1989C345.431 47.6412 345.848 47.991 346.335 48.2083C346.978 48.4594 347.666 48.5762 348.356 48.5515C348.81 48.5515 349.194 48.5515 349.497 48.5515C349.778 48.5168 350.035 48.3805 350.222 48.1683C350.408 47.9561 350.51 47.683 350.508 47.4008V46.8557C350.509 46.7148 350.482 46.5751 350.429 46.4447C350.375 46.3143 350.297 46.1958 350.197 46.0961C350.097 45.9965 349.979 45.9178 349.848 45.8645C349.718 45.8112 349.578 45.7844 349.437 45.7858" fill="#193C6C"/>
<path d="M318.893 10.3862H317.883C317.728 10.3862 317.575 10.4168 317.432 10.4763C317.289 10.5358 317.16 10.6229 317.051 10.7327C316.942 10.8425 316.856 10.9728 316.797 11.116C316.739 11.2593 316.71 11.4126 316.711 11.5672V47.259C316.708 47.4153 316.737 47.5705 316.795 47.7156C316.854 47.8607 316.94 47.9926 317.051 48.1036C317.161 48.2146 317.292 48.3025 317.437 48.362C317.582 48.4215 317.737 48.4514 317.893 48.45H318.903C319.059 48.45 319.212 48.4195 319.356 48.3601C319.499 48.3008 319.63 48.2138 319.739 48.1041C319.849 47.9945 319.936 47.8643 319.996 47.721C320.055 47.5777 320.086 47.4242 320.086 47.2691V11.5672C320.086 11.4121 320.055 11.2586 319.996 11.1153C319.936 10.972 319.849 10.8418 319.739 10.7321C319.63 10.6225 319.499 10.5355 319.356 10.4761C319.212 10.4168 319.059 10.3862 318.903 10.3862" fill="#193C6C"/>
</g>
<defs>
<clipPath id="clip0_360_23023">
<rect width="547" height="156" fill="white"/>
</clipPath>
</defs>
</svg>
