
<svg width="22" height="21" viewBox="0 0 22 21" fill="none" xmlns="http://www.w3.org/2000/svg">
<path d="M15.6141 1.00539C15.6141 0.43174 15.1486 -0.037 14.5763 0.00230537C12.9422 0.114529 11.3349 0.491203 9.81747 1.11974C7.9797 1.88097 6.30986 2.99672 4.90329 4.40329C3.49672 5.80986 2.38097 7.4797 1.61974 9.31747C0.991202 10.8349 0.614527 12.4422 0.502304 14.0763C0.462999 14.6486 0.93174 15.1141 1.50539 15.1141L4.18087 15.1141C4.75452 15.1141 5.21417 14.648 5.2714 14.0772C5.3726 13.0679 5.62118 12.0769 6.01079 11.1363C6.53317 9.87517 7.29883 8.72928 8.26405 7.76405C9.22928 6.79883 10.3752 6.03317 11.6363 5.51079C12.5769 5.12118 13.5679 4.8726 14.5772 4.7714C15.148 4.71417 15.6141 4.25452 15.6141 3.68087L15.6141 1.00539Z" fill="white"/>
<path d="M21.5 6.89125C21.5 6.3176 21.0344 5.84886 20.4621 5.88816C18.8281 6.00039 17.2207 6.37706 15.7033 7.0056C13.8656 7.76683 12.1957 8.88258 10.7891 10.2891C9.38258 11.6957 8.26683 13.3656 7.5056 15.2033C6.87706 16.7207 6.50039 18.3281 6.38816 19.9621C6.34886 20.5344 6.8176 21 7.39125 21L10.0667 21C10.6404 21 11.1 20.5338 11.1573 19.963C11.2585 18.9537 11.507 17.9628 11.8967 17.0222C12.419 15.761 13.1847 14.6151 14.1499 13.6499C15.1151 12.6847 16.261 11.919 17.5222 11.3967C18.4628 11.007 19.4537 10.7585 20.463 10.6573C21.0338 10.6 21.5 10.1404 21.5 9.56673L21.5 6.89125Z" fill="white"/>
</svg>
