<?xml version="1.0" encoding="UTF-8"?><svg xmlns="http://www.w3.org/2000/svg" viewBox="0 0 68.5 68.5"><defs><style>.d{fill:#2c2c2c;}</style></defs><g id="a"/><g id="b"><g id="c"><g><path class="d" d="M63.41,5.09C60.14,1.81,55.78,0,51.15,0H17.35C12.72,0,8.36,1.81,5.09,5.09,1.81,8.36,0,12.72,0,17.35V51.15c0,4.63,1.81,8.99,5.09,12.26,3.28,3.27,7.63,5.08,12.26,5.09H51.15c4.63,0,8.99-1.81,12.26-5.09,3.27-3.28,5.08-7.63,5.09-12.26V17.35c0-4.63-1.81-8.99-5.09-12.26Zm1.11,12.26V51.15c0,3.57-1.4,6.92-3.92,9.45-2.52,2.52-5.88,3.92-9.45,3.92H17.35c-3.57,0-6.92-1.4-9.45-3.92-2.52-2.52-3.92-5.88-3.92-9.45V17.35c0-3.57,1.4-6.92,3.92-9.45,2.52-2.52,5.88-3.92,9.45-3.92H51.15c3.57,0,6.92,1.4,9.45,3.92s3.92,5.88,3.92,9.45Z"/><path class="d" d="M45.88,22.62c-3.11-3.1-7.23-4.82-11.62-4.82h0c-4.39,0-8.52,1.71-11.63,4.82-3.11,3.11-4.82,7.24-4.82,11.63s1.71,8.52,4.82,11.63c3.11,3.11,7.24,4.82,11.63,4.82s8.52-1.71,11.63-4.82,4.82-7.24,4.82-11.63c0-4.39-1.72-8.52-4.82-11.62Zm.84,11.62c0,3.33-1.3,6.46-3.66,8.81s-5.48,3.65-8.81,3.66c-3.33,0-6.46-1.3-8.81-3.65-2.35-2.35-3.65-5.49-3.65-8.81s1.3-6.46,3.65-8.82c2.35-2.35,5.49-3.65,8.82-3.65s6.46,1.3,8.81,3.65c2.35,2.35,3.65,5.49,3.65,8.81Z"/><path class="d" d="M57.17,9.04c-1.16-1.16-2.69-1.79-4.33-1.8h0c-1.64,0-3.17,.64-4.33,1.79-1.16,1.16-1.8,2.7-1.8,4.33,0,1.61,.65,3.19,1.79,4.34,1.14,1.14,2.72,1.8,4.33,1.8h0c1.61,0,3.19-.65,4.33-1.79,1.16-1.16,1.8-2.7,1.8-4.34,0-1.64-.64-3.17-1.8-4.33Zm-4.33,6.48h0c-.57,0-1.11-.22-1.52-.63-.41-.41-.63-.94-.63-1.52s.22-1.11,.63-1.52c.4-.4,.95-.63,1.52-.63h0c.57,0,1.11,.22,1.52,.63,.41,.41,.63,.95,.63,1.52,0,.57-.22,1.11-.63,1.52-.41,.41-.94,.63-1.51,.63Z"/></g></g></g></svg>