<?xml version="1.0" encoding="UTF-8"?><svg xmlns="http://www.w3.org/2000/svg" viewBox="0 0 74 74"><defs><style>.d{fill:#2c2c2c;}</style></defs><g id="a"/><g id="b"><g id="c"><g><path class="d" d="M63.15,10.85C56.22,3.91,46.81,0,37,0V0c-7.32,0-14.47,2.17-20.56,6.24C10.36,10.3,5.62,16.08,2.82,22.84,.02,29.6-.72,37.04,.71,44.22c1.43,7.18,4.95,13.77,10.13,18.94,5.17,5.17,11.77,8.7,18.94,10.13,7.18,1.43,14.62,.69,21.38-2.11,6.76-2.8,12.54-7.54,16.61-13.63s6.24-13.24,6.24-20.56h0c0-9.81-3.91-19.22-10.85-26.15Zm-26.15,59.23c-6.54,0-12.94-1.94-18.38-5.58-5.44-3.63-9.68-8.8-12.18-14.85-2.5-6.04-3.16-12.7-1.88-19.11,1.28-6.42,4.43-12.31,9.05-16.94S24.13,5.83,30.55,4.56c6.42-1.28,13.07-.62,19.11,1.88,6.04,2.5,11.21,6.74,14.85,12.18,3.63,5.44,5.58,11.84,5.58,18.38,0,8.77-3.5,17.18-9.7,23.38-6.2,6.2-14.61,9.69-23.38,9.7Z"/><path class="d" d="M46.3,49.25c-.17-.19-.38-.35-.61-.47h0c-2.69-1.37-5.67-2.07-8.69-2.06h0c-3.04,0-6.04,.71-8.76,2.06h0c-.4,.2-.72,.52-.91,.92-.19,.4-.24,.86-.14,1.29s.35,.82,.7,1.09c.35,.27,.78,.41,1.22,.41h.02c.3,0,.6-.06,.87-.2h0c2.16-1.09,4.54-1.66,6.96-1.66,2.42,0,4.8,.55,6.97,1.62h0l.22-.44h0l-.22,.45c.46,.23,.99,.27,1.48,.11,.49-.15,.9-.49,1.15-.94l-.44-.24h0l.44,.24h0v-.02c.12-.23,.19-.48,.21-.74,.02-.26-.01-.52-.1-.76s-.21-.47-.38-.67Zm-.83-.02h0Zm-16.35,2.77h0Z"/><path class="d" d="M52.08,39.59c-.16-.48-.49-.89-.94-1.13h0l-.23,.44h0l.23-.44c-4.39-2.24-9.24-3.41-14.17-3.41s-9.78,1.17-14.17,3.41l.23,.44h0l-.23-.44h-.01c-.45,.26-.79,.67-.94,1.16s-.11,1.02,.11,1.48h0c.16,.33,.42,.6,.73,.79s.67,.29,1.04,.29h.02l-.02-.5h0l.02,.5c.3-.01,.6-.09,.86-.24h0c3.84-1.97,8.09-2.99,12.4-2.97h0c4.29-.01,8.51,1.01,12.33,2.97l.23-.44h0l-.23,.44h0c.23,.12,.48,.19,.74,.21,.26,.02,.52-.01,.76-.1,.25-.08,.47-.21,.67-.38,.2-.17,.35-.38,.47-.61h0c.23-.46,.26-.98,.11-1.47Zm-29.91,1.39l.23-.11h0l-.22,.11Z"/><polygon class="d" points="54.77 31.57 54.77 31.57 54.99 31.12 54.77 31.57"/><path class="d" d="M57.52,29.23c-.08-.25-.21-.48-.38-.68-.17-.2-.37-.35-.61-.47h0c-6.05-3.11-12.76-4.73-19.56-4.73s-13.51,1.62-19.56,4.72h0c-.4,.2-.72,.52-.91,.92-.19,.4-.24,.86-.14,1.29,.1,.43,.35,.82,.7,1.09,.35,.27,.79,.42,1.23,.41v-.5h0v.5h0c.32,0,.63-.09,.91-.24h0c5.5-2.82,11.6-4.29,17.78-4.29s12.28,1.47,17.78,4.29l.23-.45h0l-.22,.45c.46,.23,.98,.26,1.47,.11,.48-.15,.88-.49,1.13-.94h0c.12-.23,.2-.48,.23-.74,.03-.26,0-.52-.08-.77Z"/></g></g></g></svg>