<?xml version="1.0" encoding="UTF-8"?><svg xmlns="http://www.w3.org/2000/svg" viewBox="0 0 80.92 58"><defs><style>.d{fill:#2c2c2c;}</style></defs><g id="a"/><g id="b"><g id="c"><path class="d" d="M40.53,58c-.99,0-24.37-.02-30.59-1.61-4.06-1.06-7.19-4.2-8.19-8.2C.02,42,0,29.66,0,29.14S.02,16.13,1.76,10.03C2.76,6.06,5.97,2.79,9.93,1.75,16.14,.02,39.54,0,40.53,0s24.25,.02,30.49,1.76c3.92,1.02,7.13,4.28,8.14,8.3,1.74,6.12,1.76,18.55,1.76,19.08s-.02,12.86-1.76,19.1c-.99,3.95-4.12,7.09-8.17,8.15-6.23,1.59-29.47,1.61-30.46,1.61Zm0-54c-6.61,0-24.81,.29-29.56,1.61-2.6,.68-4.69,2.81-5.35,5.45-1.61,5.64-1.63,17.95-1.63,18.08s.02,12.31,1.61,18.03c.66,2.63,2.7,4.67,5.33,5.35,4.75,1.22,22.97,1.48,29.59,1.48s24.7-.27,29.46-1.48c2.62-.68,4.66-2.71,5.31-5.3,1.61-5.77,1.63-17.95,1.63-18.08s-.02-12.45-1.61-18.01l-.02-.06c-.66-2.63-2.74-4.77-5.31-5.44-4.78-1.33-22.88-1.62-29.45-1.62Zm-9.88,39.97V14.31l26,14.83-26,14.83Zm4-22.78v15.89l13.93-7.95-13.93-7.95Z"/></g></g></svg>